<svg width="23" height="21" viewBox="0 0 23 21" fill="none" xmlns="http://www.w3.org/2000/svg">
<path d="M12.2257 5.20862C13.4334 5.40084 14.5305 5.94256 15.4063 6.77261C16.2821 7.60267 16.8491 8.64242 17.0565 9.78702M12.4101 1.45589C14.5582 1.80101 16.5172 2.7665 18.0752 4.23875C19.6332 5.71538 20.6473 7.57208 21.0115 9.60789M19.3336 17.7075C19.3336 17.7075 18.1674 18.7953 17.8816 19.1142C17.416 19.586 16.8675 19.8088 16.1484 19.8088C16.0793 19.8088 16.0055 19.8088 15.9364 19.8045C14.5674 19.7214 13.2951 19.2147 12.341 18.7822C9.73199 17.5852 7.44106 15.8857 5.53734 13.732C3.9655 11.9364 2.91454 10.2763 2.2185 8.49387C1.78982 7.40606 1.63309 6.55853 1.70224 5.75906C1.74833 5.24792 1.95576 4.82416 2.33835 4.46155L3.91019 2.97183C4.13605 2.77087 4.37575 2.66165 4.61083 2.66165C4.90123 2.66165 5.13631 2.82766 5.28382 2.96746C5.28843 2.97183 5.29304 2.97619 5.29765 2.98056C5.57883 3.22958 5.84618 3.48733 6.12736 3.76256C6.27025 3.90236 6.41776 4.04216 6.56526 4.18633L7.82365 5.37898C8.31226 5.84207 8.31226 6.2702 7.82365 6.73328C7.68998 6.85998 7.56091 6.98667 7.42724 7.10899C7.04004 7.4847 7.3442 7.19642 6.94318 7.53718C6.93396 7.54592 6.92474 7.55029 6.92013 7.55902C6.52371 7.93473 6.59746 8.3017 6.68044 8.55072C6.68504 8.56383 6.68965 8.57693 6.69426 8.59004C7.02154 9.34146 7.48249 10.0492 8.18313 10.8923L8.18774 10.8967C9.45996 12.3821 10.8013 13.5398 12.281 14.4266C12.47 14.5402 12.6636 14.632 12.8479 14.7193C13.0139 14.798 13.1706 14.8722 13.3043 14.9509C13.3227 14.9596 13.3412 14.9727 13.3596 14.9815C13.5163 15.0557 13.6638 15.0907 13.8159 15.0907C14.1985 15.0907 14.4382 14.8635 14.5166 14.7892L15.4201 13.9329C15.5768 13.7844 15.8257 13.6053 16.1161 13.6053C16.4019 13.6053 16.637 13.7756 16.7799 13.9242C16.7845 13.9285 16.7845 13.9285 16.7891 13.9329L19.329 16.3401C19.8037 16.7857 19.3336 17.7075 19.3336 17.7075Z" stroke="black" stroke-width="2" stroke-linecap="round" stroke-linejoin="round"/>
</svg>
