<svg width="24" height="25" viewBox="0 0 24 25" fill="none" xmlns="http://www.w3.org/2000/svg">
<path d="M21.5999 17.06V18.06C22.1522 18.06 22.5999 17.6123 22.5999 17.06H21.5999ZM21.5999 11.78H22.5999C22.5999 11.2277 22.1522 10.78 21.5999 10.78V11.78ZM7.13914 6.61882C6.67457 6.91747 6.54007 7.53619 6.83872 8.00076C7.13738 8.46533 7.75609 8.59983 8.22066 8.30118L7.13914 6.61882ZM14.3999 3.14L15.1893 2.52606C14.8715 2.11751 14.2945 2.01894 13.8591 2.29882L14.3999 3.14ZM16.9705 8.07394C17.3096 8.50989 17.9379 8.58842 18.3738 8.24935C18.8098 7.91028 18.8883 7.28201 18.5493 6.84606L16.9705 8.07394ZM21.5999 16.06H18.4799V18.06H21.5999V16.06ZM18.4799 12.78H21.5999V10.78H18.4799V12.78ZM20.5999 11.78V17.06H22.5999V11.78H20.5999ZM16.8399 14.42C16.8399 13.5143 17.5742 12.78 18.4799 12.78V10.78C16.4696 10.78 14.8399 12.4097 14.8399 14.42H16.8399ZM18.4799 16.06C17.5742 16.06 16.8399 15.3257 16.8399 14.42H14.8399C14.8399 16.4303 16.4696 18.06 18.4799 18.06V16.06ZM8.22066 8.30118L14.9407 3.98118L13.8591 2.29882L7.13914 6.61882L8.22066 8.30118ZM13.6105 3.75394L16.9705 8.07394L18.5493 6.84606L15.1893 2.52606L13.6105 3.75394ZM3.3599 8.46H19.6799V6.46H3.3599V8.46ZM19.6799 20.86H3.3599V22.86H19.6799V20.86ZM3.3999 20.9V8.42H1.3999V20.9H3.3999ZM3.3599 20.86C3.38199 20.86 3.3999 20.8779 3.3999 20.9H1.3999C1.3999 21.9825 2.27742 22.86 3.3599 22.86V20.86ZM19.6399 20.9C19.6399 20.8779 19.6578 20.86 19.6799 20.86V22.86C20.7624 22.86 21.6399 21.9825 21.6399 20.9H19.6399ZM19.6799 8.46C19.6578 8.46 19.6399 8.44209 19.6399 8.42H21.6399C21.6399 7.33752 20.7624 6.46 19.6799 6.46V8.46ZM3.3599 6.46C2.27742 6.46 1.3999 7.33752 1.3999 8.42H3.3999C3.3999 8.44209 3.38199 8.46 3.3599 8.46V6.46ZM19.6399 17.78V20.9H21.6399V17.78H19.6399ZM19.6399 8.42V10.94H21.6399V8.42H19.6399Z" fill="black"/>
</svg>
